<svg viewBox="0 0 24 24" xmlns="http://www.w3.org/2000/svg"><path d="M12.0065 2.98125C14.9462 2.98125 15.2943 2.99414 16.4504 3.04571C17.5248 3.09299 18.105 3.27349 18.4918 3.42391C19.0032 3.62161 19.3728 3.86228 19.7553 4.24477C20.1421 4.63157 20.3785 4.99687 20.5762 5.5083C20.7266 5.8951 20.9071 6.47959 20.9544 7.54972C21.006 8.7101 21.0189 9.05822 21.0189 11.9936C21.0189 14.9332 21.006 15.2813 20.9544 16.4374C20.9071 17.5118 20.7266 18.092 20.5762 18.4788C20.3785 18.9902 20.1378 19.3598 19.7553 19.7423C19.3685 20.1291 19.0032 20.3655 18.4918 20.5632C18.105 20.7136 17.5205 20.8941 16.4504 20.9414C15.29 20.993 14.9419 21.0059 12.0065 21.0059C9.06691 21.0059 8.71879 20.993 7.56271 20.9414C6.48828 20.8941 5.90809 20.7136 5.52129 20.5632C5.00986 20.3655 4.64026 20.1248 4.25776 19.7423C3.87097 19.3555 3.6346 18.9902 3.4369 18.4788C3.28648 18.092 3.10598 17.5075 3.0587 16.4374C3.00713 15.277 2.99424 14.9289 2.99424 11.9936C2.99424 9.05392 3.00713 8.7058 3.0587 7.54972C3.10598 6.47529 3.28648 5.8951 3.4369 5.5083C3.6346 4.99687 3.87527 4.62727 4.25776 4.24477C4.64456 3.85798 5.00986 3.62161 5.52129 3.42391C5.90809 3.27349 6.49258 3.09299 7.56271 3.04571C8.71879 2.99414 9.06691 2.98125 12.0065 2.98125ZM12.0065 1C9.01963 1 8.64573 1.01289 7.47246 1.06447C6.30348 1.11604 5.4998 1.30514 4.80357 1.57589C4.07726 1.85954 3.46269 2.23344 2.85241 2.84802C2.23784 3.45829 1.86394 4.07287 1.58029 4.79488C1.30953 5.49541 1.12043 6.29478 1.06886 7.46376C1.01729 8.64134 1.00439 9.01524 1.00439 12.0021C1.00439 14.9891 1.01729 15.363 1.06886 16.5362C1.12043 17.7052 1.30953 18.5089 1.58029 19.2051C1.86394 19.9314 2.23784 20.546 2.85241 21.1563C3.46269 21.7666 4.07726 22.1448 4.79928 22.4241C5.4998 22.6949 6.29918 22.884 7.46816 22.9355C8.64143 22.9871 9.01534 23 12.0022 23C14.9892 23 15.3631 22.9871 16.5363 22.9355C17.7053 22.884 18.509 22.6949 19.2052 22.4241C19.9272 22.1448 20.5418 21.7666 21.1521 21.1563C21.7624 20.546 22.1406 19.9314 22.4199 19.2094C22.6907 18.5089 22.8798 17.7095 22.9313 16.5405C22.9829 15.3673 22.9958 14.9934 22.9958 12.0064C22.9958 9.01954 22.9829 8.64563 22.9313 7.47236C22.8798 6.30338 22.6907 5.49971 22.4199 4.80348C22.1492 4.07287 21.7753 3.45829 21.1607 2.84802C20.5504 2.23774 19.9358 1.85954 19.2138 1.58019C18.5133 1.30944 17.7139 1.12034 16.5449 1.06876C15.3674 1.01289 14.9935 1 12.0065 1Z"/><path d="M12.007 6.351C8.886 6.351 6.355 8.882 6.355 12.002 6.355 15.122 8.886 17.654 12.007 17.654 15.127 17.654 17.658 15.122 17.658 12.002 17.658 8.882 15.127 6.351 12.007 6.351ZM12.007 15.668C9.982 15.668 8.341 14.026 8.341 12.002 8.341 9.978 9.982 8.336 12.007 8.336 14.031 8.336 15.673 9.978 15.673 12.002 15.673 14.026 14.031 15.668 12.007 15.668ZM19.201 6.127C19.201 6.858 18.608 7.447 17.882 7.447 17.151 7.447 16.562 6.853 16.562 6.127 16.562 5.397 17.155 4.808 17.882 4.808 18.608 4.808 19.201 5.401 19.201 6.127Z"/></svg>