<svg width="24" height="24" viewBox="0 0 24 24" fill="none" xmlns="http://www.w3.org/2000/svg">
<path d="M5.76879 3.61857C8.29104 5.51212 11.004 9.35144 12.0001 11.4118C12.9962 9.35159 15.709 5.51208 18.2313 3.61857C20.0513 2.25227 23 1.1951 23 4.55907C23 5.2309 22.6148 10.2028 22.3889 11.01C21.6036 13.8162 18.7421 14.532 16.1967 14.0988C20.646 14.856 21.7778 17.3643 19.3335 19.8726C14.6911 24.6363 12.661 18.6774 12.1406 17.1505C12.0453 16.8705 12.0007 16.7396 12 16.8509C11.9993 16.7396 11.9547 16.8705 11.8594 17.1505C11.3392 18.6774 9.30916 24.6365 4.66654 19.8726C2.22213 17.3643 3.35395 14.8559 7.80331 14.0988C5.25785 14.532 2.39627 13.8162 1.6111 11.01C1.38518 10.2027 1 5.23082 1 4.55907C1 1.1951 3.94882 2.25227 5.76866 3.61857H5.76879Z" fill="black"/>
</svg>
