<svg width="24" height="24" viewBox="0 0 24 24" fill="none" xmlns="http://www.w3.org/2000/svg">
<path d="M10.0211 22.0219V13.9805H1.97973C0.886641 13.9805 0.00017381 13.0939 0 12.0008C0 10.9076 0.886533 10.0211 1.97973 10.0211H10.0211V1.97973C10.0211 0.886533 10.9076 0 12.0008 0C13.0939 0.00017381 13.9805 0.886641 13.9805 1.97973V10.0211H22.0219C23.1148 10.0214 24 10.9078 24 12.0008C23.9998 13.0936 23.1147 13.9802 22.0219 13.9805H13.9805V22.0219C13.9802 23.1147 13.0936 23.9998 12.0008 24C10.9078 24 10.0214 23.1148 10.0211 22.0219Z" fill="black"/>
</svg>
