<svg width="24" height="24" viewBox="0 0 24 24" fill="none" xmlns="http://www.w3.org/2000/svg">
<path d="M22.7809 7.6021C22.7809 7.6021 22.566 6.0853 21.9043 5.41929C21.0664 4.54272 20.1297 4.53843 19.7 4.48687C16.6234 4.26343 12.0043 4.26343 12.0043 4.26343H11.9957C11.9957 4.26343 7.37656 4.26343 4.3 4.48687C3.87031 4.53843 2.93359 4.54272 2.0957 5.41929C1.43398 6.0853 1.22344 7.6021 1.22344 7.6021C1.22344 7.6021 1 9.3853 1 11.1642V12.8314C1 14.6103 1.21914 16.3935 1.21914 16.3935C1.21914 16.3935 1.43398 17.9103 2.09141 18.5763C2.9293 19.4529 4.0293 19.4228 4.51914 19.5173C6.28086 19.6849 12 19.7365 12 19.7365C12 19.7365 16.6234 19.7279 19.7 19.5087C20.1297 19.4572 21.0664 19.4529 21.9043 18.5763C22.566 17.9103 22.7809 16.3935 22.7809 16.3935C22.7809 16.3935 23 14.6146 23 12.8314V11.1642C23 9.3853 22.7809 7.6021 22.7809 7.6021ZM9.72695 14.8552V8.67202L15.6695 11.7744L9.72695 14.8552Z" fill="black"/>
</svg>
